<?xml version="1.0" standalone="no"?>
<!DOCTYPE svg PUBLIC "-//W3C//DTD SVG 20010904//EN"
 "http://www.w3.org/TR/2001/REC-SVG-20010904/DTD/svg10.dtd">
<svg version="1.0" xmlns="http://www.w3.org/2000/svg"
 width="600.000000pt" height="600.000000pt" viewBox="0 0 600.000000 600.000000"
 preserveAspectRatio="xMidYMid meet">
<metadata>
Created by potrace 1.14, written by Peter Selinger 2001-2017
</metadata>
<g transform="translate(0.000000,600.000000) scale(0.100000,-0.100000)"
fill="#000000" stroke="none">
<path d="M2798 5995 c-1 -1 -37 -5 -78 -9 -41 -3 -86 -8 -100 -10 -14 -3 -43
-7 -65 -10 -79 -11 -111 -18 -220 -42 -60 -14 -119 -27 -129 -29 -81 -18 -348
-118 -481 -180 -111 -52 -298 -155 -303 -167 -2 -4 -10 -8 -18 -8 -8 0 -14 -4
-14 -10 0 -5 -4 -10 -9 -10 -12 0 -105 -61 -109 -72 -2 -4 -8 -8 -13 -8 -6 0
-15 -5 -22 -10 -7 -6 -30 -24 -52 -41 -170 -128 -403 -355 -515 -499 -19 -25
-39 -50 -45 -57 -17 -21 -29 -37 -64 -88 -19 -28 -38 -52 -41 -55 -6 -5 -66
-101 -123 -198 -15 -26 -32 -59 -38 -74 -6 -16 -14 -28 -18 -28 -4 0 -14 -18
-21 -40 -7 -22 -17 -40 -22 -40 -4 0 -8 -6 -8 -14 0 -8 -15 -47 -34 -87 -53
-117 -97 -230 -101 -259 0 -3 -3 -9 -6 -15 -4 -5 -10 -26 -14 -45 -4 -19 -10
-39 -13 -45 -4 -5 -7 -14 -8 -20 -1 -5 -10 -39 -19 -75 -19 -73 -22 -85 -35
-155 -6 -27 -12 -61 -15 -75 -3 -14 -8 -45 -11 -70 -3 -25 -7 -56 -10 -70 -25
-152 -26 -648 0 -786 2 -10 9 -53 16 -94 26 -162 117 -500 141 -525 5 -5 9
-16 9 -25 0 -38 142 -338 221 -468 22 -37 45 -76 52 -87 16 -26 148 -217 162
-232 5 -7 15 -18 20 -25 101 -130 326 -360 445 -454 41 -32 77 -61 80 -64 22
-25 300 -210 315 -210 5 0 16 -6 24 -14 15 -13 273 -146 284 -146 2 0 22 -8
43 -17 22 -9 41 -17 44 -18 3 -1 22 -9 43 -18 62 -27 245 -84 357 -111 147
-35 250 -53 425 -75 72 -9 571 -7 615 2 14 3 48 8 75 12 177 21 387 71 580
136 132 45 143 50 295 121 161 76 448 245 458 270 2 4 8 8 13 8 6 0 15 4 22
10 7 5 53 42 102 81 50 39 98 80 108 91 9 11 17 17 17 13 0 -3 53 47 118 112
112 112 248 270 302 348 14 20 30 42 36 48 23 26 94 137 94 146 0 6 4 11 9 11
5 0 13 10 17 22 4 13 10 25 15 28 13 9 154 291 192 385 60 148 123 342 141
431 3 10 9 39 15 64 24 107 36 179 47 275 2 22 8 72 13 110 9 70 7 504 -2 560
-3 17 -9 59 -13 95 -4 36 -8 67 -9 70 -1 3 -5 28 -9 55 -5 28 -19 97 -33 155
-13 58 -26 114 -28 124 -6 25 -64 204 -75 231 -5 11 -20 49 -34 85 -14 36 -39
97 -57 135 -18 39 -33 72 -33 75 -1 3 -5 10 -9 16 -4 7 -24 46 -46 87 -22 42
-51 93 -65 114 -14 21 -26 43 -26 50 0 7 -4 13 -10 13 -5 0 -10 7 -10 15 0 8
-4 15 -8 15 -5 0 -15 12 -23 27 -17 34 -175 245 -226 304 -57 64 -252 258
-308 307 -64 54 -59 50 -146 116 -41 31 -87 66 -103 79 -16 12 -34 24 -40 26
-6 2 -36 21 -66 42 -60 41 -98 62 -210 122 -41 22 -81 44 -87 49 -7 6 -13 8
-13 5 0 -3 -31 10 -69 28 -39 19 -89 42 -113 50 -92 34 -304 106 -323 109 -19
4 -86 20 -130 32 -11 3 -31 7 -45 10 -14 2 -38 7 -55 11 -44 10 -51 11 -150
23 -49 6 -101 14 -115 16 -28 6 -496 14 -502 9z"/>
</g>
</svg>
